<?xml version="1.0" encoding="UTF-8"?>
<svg id="Layer_2" data-name="Layer 2" xmlns="http://www.w3.org/2000/svg" viewBox="0 0 579.4 121.6">
  <defs>
    <style>
      .cls-1 {
        fill: #231f20;
      }
    </style>
  </defs>
  <g id="Layer_1-2" data-name="Layer 1">
    <g id="RENZRICK">
      <g id="R">
        <path d="M.26,46.55c-.51,3.04-.12,6.41-.12,9.29v53.18c-.14,2.74,.67,5.57,2.49,7.67,3,3.46,8.59,3.64,12.81,3.01,4.32-.65,7.7-3.15,8.61-7.57,.56-2.7,.25-5.46,.15-8.19-.07-2.05,.04-4.11,.09-6.16,.08-3.25,.32-6.55,.15-9.79-.09-1.85,.02-13.64,.02-13.64,0,0,.42-7.13,8.95-11.62,5.46-1.41,12.15-3.34,12.5-9.59s0-7.51,0-7.52c-.66-2.44-2.4-3.97-4.67-4.91-3.12-1.29-5.94-.18-8.99,.76-4.86,1.51-8.62-.48-13.19-1.88-2.38-.73-4.92-.94-7.4-.91-4.17,.06-8.79,1.23-10.65,5.37-.36,.79-.59,1.64-.74,2.5h-.01Z"/>
      </g>
      <g id="E">
        <path d="M125.82,71.47c-.51-3.57-1.69-7.21-2.86-10.61-3.07-8.91-10.32-16.77-19.18-19.95-14.13-5.08-32.08-2.43-42.92,8.43-1.62,1.62-3.04,3.43-4.27,5.37-4.17,6.57-6.21,14.68-6.64,22.28-.35,6.27,.09,12.67,1.78,18.73,4.62,15.71,18.1,23.96,33.74,25.01,4.37,.29,8.79,.07,13.11-.68,4.24-.74,8.17-2.03,11.88-4.22,2.85-1.68,6.83-3.55,8.72-6.39,1.76-2.64,2.46-3.7,2.93-4.93,.47-1.23,1.76-3.52-2.7-7.57-4.46-4.05-10.39-1.99-11.21-1.53s-9.09,7.33-11.09,8.1c-1.99,.76-6.04,2.46-13.55,.53-2.52-1.23-6.1-3.87-7.04-5.16-1.93-2.65-3.25-6.36-2.81-9.67,.45-3.38,3.6-5.35,7.39-5.61,.88,.06,35.32-.44,36.96-.44s6.45-.82,7.39-4.75,.47-6.1,.35-6.92l.02-.02Zm-23.67-5.57c-1.07,2.92-4.39,3.95-7.16,4.48-4.23,.81-9.03,.86-13.28,.14-3.03-.51-6.66-2.46-6.93-5.84-.15-1.91,.59-3.88,1.79-5.35,2.52-3.06,7.44-5.18,11.37-5.05,3.75,.13,7.06,.85,10.13,3.1,2.57,1.89,5.33,5.1,4.08,8.51h0Z"/>
      </g>
      <g id="N">
        <path d="M134.62,48.82v46.38c0,5.57-.42,11.26,0,16.8,1.09,6.27,5.19,8.27,11.43,8.01,3.8-.16,8.98-2.33,9.38-6.66,.28-3.07,.04-6.32,.12-9.41,.09-3.59,.19-7.18,.19-10.77,0-6.73-.56-14.19,.35-20.86s4.05-15.31,12.76-14.96c10.39-.18,12.32,9.77,12.5,10.74s.79,4.69,.79,11.54v33.78c0,.62,2.11,7.04,10.39,6.62,7.92-.02,10.65-4.59,10.74-5.39s-.09-57.3,0-55.53,.12-10.94-10.44-17.4c-.52-.32-1.41-.41-1.99-.6-.79-.25-1.58-.49-2.38-.69-2.22-.56-4.5-.8-6.79-.8s-4.35-.09-6.61,.26c-2.96,.46-6.1,1.33-8.8,2.64-.65,.32-1.35,.53-2.06,.67-2.68,.56-5.53,.29-8.21-.09-4.46-.94-7.04-1.64-13.73-1.76-5.28,.7-7.63,4.69-7.63,6.81"/>
      </g>
      <g id="Z">
        <path d="M254.31,41.02h-25.96c-3.03,0-6.01-.34-8.51,1.72-2.15,1.78-3.07,4.46-3.07,7.2,1.17,5.05,3.52,6.69,7.98,7.39,5.87,0,12.99-.23,14.18,0,1.96,.39,3.93,.43,5.76,1.34,4.65,2.3,2.13,7.29-.28,10.17-3.54,4.23-7.82,7.8-11.68,11.73-4.87,4.95-9.87,9.77-14.59,14.87-2.88,3.11-5.04,6.94-5.74,11.15-.61,3.65-.52,9.02,2.85,11.42,3.05,2.17,6.28,1.76,7.28,1.7s50.28,0,50.28,0c0,0,10.39,.06,9.95-8.74-.53-2.55-2.73-7.39-8.1-7.48-3.68-.06-7.36-.13-11.05-.19-1.96-.04-3.91-.07-5.87-.12-2.76-.06-5.64,.23-7.79-1.82-1.99-1.9-1.94-4.62-.9-7.02,1.18-1.89,2.9-3.53,4.4-5.16,2.67-2.9,5.41-5.74,8.16-8.57,5.43-5.6,10.93-11.13,16.39-16.71,1.3-1.33,2.76-2.61,3.56-4.33,.82-1.78,1-3.83,1.18-5.75,.25-2.66,.76-6.34-.63-8.73-1.21-2.08-4-3.84-6.4-4.06-2.24-.2-4.62,.02-6.88,.02h-14.48l-.04-.03Z"/>
      </g>
      <g id="R-2">
        <path d="M292.34,46.55c-.51,3.04-.12,6.41-.12,9.29v53.18c-.14,2.74,.67,5.57,2.49,7.67,3,3.46,8.59,3.64,12.81,3.01,4.32-.65,7.7-3.15,8.61-7.57,.56-2.7,.25-5.46,.15-8.19-.07-2.05,.04-4.11,.09-6.16,.08-3.25,.32-6.55,.15-9.79-.09-1.85,.02-13.64,.02-13.64,0,0,.42-7.13,8.95-11.62,5.46-1.41,12.15-3.34,12.5-9.59,.35-6.2,0-7.51,0-7.52-.66-2.44-2.4-3.97-4.67-4.91-3.12-1.29-5.94-.18-8.99,.76-4.86,1.51-8.62-.48-13.19-1.88-2.38-.73-4.92-.94-7.4-.91-4.17,.06-8.79,1.23-10.65,5.37-.36,.79-.59,1.64-.74,2.5h0Z"/>
      </g>
      <g id="I">
        <path d="M357.29,38.68s-12.32-2-12.32,12.08c-.18,13.73,0,59.14,0,59.14,0,0-1.82,9.87,12.32,9.87,12.73,0,12.15-8.34,12.15-9.05V48.64s1.17-9.97-12.15-9.97h0Z"/>
        <path d="M357.17,10.13c-1.55,0-3.05,.17-4.35,.45-2.3,.49-4.53,1.64-5.92,3.54-.95,1.3-1.46,2.88-1.65,4.48-.27,2.32,.15,4.79,1.56,6.65,1.11,1.46,2.75,2.45,4.49,3.02s3.59,.72,5.42,.75c1.97,.02,3.96-.11,5.84-.68s3.67-1.6,4.9-3.13c1.52-1.89,2.1-4.43,1.82-6.84-.21-1.73-.86-3.44-2.02-4.74-2.3-2.57-6.35-3.5-10.09-3.49h0Z"/>
      </g>
      <g id="C">
        <path d="M418.6,37.79c-4.36,.01-8.72,.69-12.92,2.02-9.73,3.08-17.93,9.61-22.62,18.74-1.69,3.29-2.92,6.8-3.77,10.39-.72,3.03-.74,6.52-.87,9.62-.42,10.37,1.93,21.71,8.58,29.93,4.93,6.09,12.09,9.66,19.58,11.55,8.06,2.03,17.22,2.29,25.16-.49,6.3-2.21,13.84-6.03,17.19-12.14,.1-.19,.2-.38,.3-.58,3.64-7.63-3.87-10.21-5.04-10.56-6.99-2.1-11.72,4.71-17.75,6.66-5.71,1.84-11.71,.68-16.31-3.19-1.15-.97-2.19-2.06-3.13-3.23-1.73-2.15-2.75-5.67-3.52-8.27-3.11-10.44-.69-26.44,10.78-30.87,.85-.33,1.91-.8,2.84-.88,1.41-.12,4.58-1.41,9.97,1.29,5.28,3.52,10.91,6.69,15.96,4.46,2.94-1.3,6.12-3.47,6.63-6.9,.62-4.14-2.34-6.81-5.28-9.11-7.17-5.59-16.73-8.49-25.76-8.46l-.02,.02Z"/>
      </g>
      <g id="K">
        <path d="M468.18,14.67c-6.52,0-9.62,3.52-9.62,9.68V108.84c0,2.11-.76,11.35,10.41,10.65,2.12-.13,4.12,.22,6.04-.95,4-2.44,4.34-7.62,4.39-11.83,.06-4.82,.54-10.1,4.64-13.36,2.63-2.09,5.92-1.57,8.57,.13,3.26,2.09,5.46,5.59,7.08,9.02,2.55,4.84,4.77,8.29,7.68,12.01,3.75,4.13,8.62,5.32,14.07,5.11,.88-.03,1.75-.1,2.63-.1,3.52-.57,8.98-1.53,3.26-11.13-4.98-8.35-9.96-16.69-14.91-25.05-1.88-3.17-3.79-6.04-4.03-9.82-.2-3.04,.41-6.5,2.58-8.78,4.93-5.19,12.59-13.91,13.38-15.4,.79-1.5,2.29-7.04-3.96-7.04-3.21,0-6.45-.11-9.63,.37-2.02,.3-4,.82-5.79,1.83-1.96,1.1-3.22,2.78-4.75,4.38-2.67,2.79-5.19,5.82-7.98,8.48-1.91,1.82-4.8,4.13-7.57,4.13-2.11-.18-4.66-.7-5.02-7.22-.35-6.51-.53-28.6-.44-30.72s-.09-8.89-11-8.89h-.03Z"/>
      </g>
    </g>
    <g id="star">
      <path class="cls-1" d="M579.4,15.63v.82c-2.3,1.42-5.75,3.56-10.35,6.41,.11,.22,1.97,1.53,5.59,3.95,2.3,1.42,3.45,3.12,3.45,5.09,0,.55-.16,1.26-.49,2.14s-.49,1.53-.49,1.97c-.44,.66-1.26,.99-2.46,.99-4.05,0-7.29-1.09-9.7-3.29-.22,.33-.39,.77-.49,1.31,0,1.31,1.42,3.78,4.27,7.39v2.63c-3.18,1.54-4.99,2.3-5.42,2.3-1.75,0-3.73-1.75-5.92-5.26-1.54-2.52-3.12-4.98-4.77-7.39-1.97,1.75-4,3.56-6.08,5.42-2.74,2.41-5.09,3.61-7.07,3.61-1.21,0-2.85-.6-4.93-1.81v-3.12c0-.66,3.01-3.95,9.04-9.86-.88-1.31-3.23-2.19-7.07-2.63s-6.3-1.2-7.39-2.3c1.1-4.05,3.18-6.57,6.24-7.56,1.42-.22,4.82-.33,10.19-.33,0-.22-1.1-1.86-3.29-4.93-1.86-2.52-2.79-4.05-2.79-4.6,0-1.53,.85-3.01,2.55-4.44,1.7-1.42,3.15-2.14,4.36-2.14,1.97,0,4.05,2.47,6.24,7.39,1.64,3.29,3.23,6.63,4.77,10.03,2.96-2.08,5.92-4.16,8.87-6.25,4.93-3.39,7.72-5.09,8.38-5.09,1.53,0,2.71,1.1,3.53,3.29s1.23,4.27,1.23,6.25h0Z"/>
    </g>
  </g>
</svg>