<?xml version="1.0" encoding="UTF-8"?>
<svg id="Layer_2" data-name="Layer 2" xmlns="http://www.w3.org/2000/svg" viewBox="0 0 497.03 104.31">
  <defs>
    <style>
      .cls-1 {
        fill: #416e34;
      }
    </style>
  </defs>
  <g id="VAR_3" data-name="VAR 3">
    <path class="cls-1" d="M.23,39.92c-.44,2.6-.11,5.5-.11,7.97v36.35c0,3.07,0,6.14,0,9.21,0,.02,0,.04,0,.05-.12,2.35,.57,4.78,2.13,6.58,2.57,2.96,7.37,3.13,10.99,2.58,3.71-.56,6.61-2.7,7.39-6.49,.48-2.32,.21-4.68,.13-7.02-.06-1.76,.03-3.53,.08-5.29,.07-2.79,.27-5.62,.13-8.4-.08-1.59,.01-11.7,.01-11.7,0,0,.36-6.12,7.68-9.97,4.68-1.21,10.42-2.87,10.72-8.23s0-6.44,0-6.45c-.56-2.09-2.06-3.4-4.01-4.21-2.68-1.1-5.09-.16-7.71,.65-4.17,1.29-7.39-.41-11.31-1.61-2.04-.62-4.22-.81-6.35-.78-3.58,.05-7.54,1.05-9.14,4.61-.31,.68-.51,1.41-.63,2.14Z"/>
    <path class="cls-1" d="M107.93,61.3c-.44-3.06-1.45-6.18-2.45-9.1-2.63-7.64-8.85-14.38-16.45-17.12-12.12-4.36-27.52-2.08-36.82,7.23-1.39,1.39-2.61,2.94-3.67,4.61-3.58,5.64-5.33,12.59-5.69,19.11-.3,5.38,.08,10.86,1.53,16.07,3.96,13.48,15.53,20.56,28.94,21.45,3.75,.25,7.54,.06,11.25-.58,3.64-.64,7.01-1.74,10.19-3.62,2.45-1.44,5.85-3.05,7.48-5.49,1.51-2.26,2.11-3.17,2.52-4.23,.4-1.06,1.51-3.02-2.32-6.49-3.83-3.47-8.91-1.71-9.61-1.31s-7.8,6.29-9.51,6.95c-1.71,.65-5.18,2.11-11.63,.45-2.16-1.06-5.23-3.32-6.04-4.43-1.66-2.27-2.79-5.46-2.41-8.3,.39-2.9,3.09-4.59,6.34-4.82,.76,.05,30.3-.38,31.71-.38s5.54-.7,6.34-4.08c.81-3.37,.4-5.23,.3-5.94Zm-20.31-4.78c-.92,2.5-3.77,3.39-6.14,3.84-3.63,.69-7.75,.74-11.39,.12-2.6-.44-5.71-2.11-5.94-5.01-.13-1.64,.5-3.33,1.54-4.59,2.16-2.63,6.38-4.45,9.75-4.33,3.22,.11,6.05,.73,8.69,2.66,2.21,1.62,4.57,4.37,3.5,7.3Z"/>
    <path class="cls-1" d="M115.48,41.87c0,13.26,0,26.53,0,39.79,0,4.78-.36,9.66,0,14.41,.93,5.37,4.45,7.1,9.81,6.87,3.26-.14,7.7-2,8.04-5.71,.24-2.64,.03-5.42,.1-8.08,.08-3.08,.16-6.16,.16-9.24,0-5.78-.48-12.18,.3-17.89,.8-5.88,3.47-13.14,10.95-12.83,8.91-.15,10.57,8.38,10.72,9.21s.68,4.02,.68,9.9v28.98c0,.53,1.81,6.04,8.91,5.68,6.79-.01,9.14-3.94,9.21-4.62s-.08-49.15,0-47.64,.1-9.39-8.96-14.92c-.44-.27-1.21-.35-1.71-.51-.68-.21-1.36-.42-2.05-.59-1.91-.48-3.86-.69-5.83-.68s-3.73-.08-5.67,.23c-2.54,.4-5.23,1.14-7.55,2.27-.56,.27-1.16,.45-1.77,.58-2.3,.48-4.74,.25-7.04-.08-3.83-.81-6.04-1.41-11.78-1.51-4.53,.6-6.54,4.03-6.54,5.84"/>
    <path class="cls-1" d="M218.16,35.17h-22.27c-2.6,0-5.16-.29-7.3,1.48-1.85,1.52-2.64,3.82-2.64,6.17,1.01,4.33,3.02,5.74,6.85,6.34,5.03,0,11.14-.2,12.16,0,1.68,.33,3.37,.37,4.94,1.15,3.99,1.97,1.82,6.26-.24,8.72-3.04,3.63-6.71,6.69-10.02,10.06-4.18,4.25-8.47,8.38-12.51,12.75-2.47,2.67-4.32,5.95-4.93,9.56-.53,3.13-.44,7.74,2.44,9.79,2.62,1.86,5.39,1.51,6.24,1.46s43.14,0,43.14,0c0,0,8.91,.05,8.53-7.5-.45-2.19-2.34-6.34-6.95-6.42-3.16-.05-6.32-.11-9.48-.17-1.68-.03-3.36-.06-5.04-.1-2.37-.05-4.83,.2-6.68-1.56-1.71-1.63-1.66-3.97-.77-6.02,1.01-1.62,2.49-3.03,3.78-4.43,2.29-2.49,4.64-4.93,7-7.35,4.66-4.81,9.38-9.55,14.06-14.33,1.12-1.14,2.37-2.24,3.05-3.71,.7-1.52,.86-3.29,1.01-4.94,.21-2.28,.65-5.44-.54-7.49-1.04-1.79-3.43-3.3-5.49-3.49-1.92-.18-3.96,.01-5.9,.01h-12.42Z"/>
    <path class="cls-1" d="M250.78,39.92c-.44,2.6-.11,5.5-.11,7.97v36.35c0,3.07,0,6.14,0,9.21,0,.02,0,.04,0,.05-.12,2.35,.57,4.78,2.13,6.58,2.57,2.96,7.37,3.13,10.99,2.58,3.71-.56,6.61-2.7,7.39-6.49,.48-2.32,.21-4.68,.13-7.02-.06-1.76,.03-3.53,.08-5.29,.07-2.79,.27-5.62,.13-8.4-.08-1.59,.01-11.7,.01-11.7,0,0,.36-6.12,7.68-9.97,4.68-1.21,10.42-2.87,10.72-8.23,.3-5.32,0-6.44,0-6.45-.56-2.09-2.06-3.4-4.01-4.21-2.68-1.1-5.09-.16-7.71,.65-4.17,1.29-7.39-.41-11.31-1.61-2.04-.62-4.22-.81-6.35-.78-3.58,.05-7.54,1.05-9.14,4.61-.31,.68-.51,1.41-.63,2.14Z"/>
    <path class="cls-1" d="M306.5,33.17s-10.57-1.72-10.57,10.36c-.15,11.78,0,50.74,0,50.74,0,0-1.56,8.46,10.57,8.46,10.92,0,10.42-7.16,10.42-7.76V41.72s1.01-8.55-10.42-8.55Z"/>
    <path class="cls-1" d="M306.4,8.68c-1.33,0-2.62,.14-3.73,.38-1.97,.42-3.89,1.41-5.08,3.04-.82,1.11-1.26,2.47-1.42,3.84-.23,1.99,.13,4.11,1.34,5.7,.95,1.25,2.36,2.1,3.85,2.59s3.08,.62,4.65,.64c1.69,.02,3.39-.09,5.01-.58,1.62-.49,3.15-1.37,4.21-2.68,1.3-1.62,1.8-3.8,1.56-5.87-.18-1.49-.74-2.95-1.73-4.07-1.97-2.2-5.45-3-8.66-3Z"/>
    <path class="cls-1" d="M359.09,32.41c-3.74,.01-7.48,.59-11.09,1.73-8.35,2.64-15.38,8.25-19.4,16.08-1.45,2.82-2.5,5.83-3.23,8.92-.61,2.6-.64,5.59-.74,8.26-.36,8.9,1.65,18.63,7.36,25.68,4.22,5.22,10.37,8.29,16.8,9.91,6.92,1.74,14.77,1.96,21.58-.42,5.41-1.89,11.87-5.17,14.75-10.41,.09-.16,.17-.33,.25-.5,3.12-6.54-3.32-8.76-4.33-9.06-6-1.8-10.05,4.04-15.23,5.71-4.9,1.58-10.05,.59-13.99-2.74-.99-.83-1.88-1.77-2.69-2.77-1.49-1.84-2.36-4.87-3.02-7.09-2.66-8.95-.59-22.68,9.24-26.48,.73-.28,1.64-.69,2.44-.75,1.21-.1,3.93-1.21,8.56,1.11,4.53,3.02,9.36,5.74,13.69,3.83,2.52-1.11,5.25-2.98,5.69-5.92,.53-3.55-2.01-5.84-4.53-7.81-6.15-4.79-14.35-7.28-22.1-7.26Z"/>
    <path class="cls-1" d="M401.62,12.58c-5.59,0-8.25,3.02-8.25,8.3V93.36c0,1.81-.65,9.74,8.93,9.14,1.82-.11,3.53,.19,5.18-.82,3.43-2.1,3.73-6.54,3.77-10.15,.05-4.14,.46-8.66,3.98-11.46,2.25-1.79,5.07-1.35,7.35,.11,2.8,1.79,4.68,4.79,6.07,7.74,2.19,4.15,4.09,7.11,6.59,10.3,3.22,3.55,7.39,4.56,12.07,4.38,.75-.03,1.5-.08,2.25-.08,3.02-.49,7.7-1.32,2.79-9.55-4.27-7.16-8.54-14.32-12.79-21.49-1.61-2.72-3.25-5.18-3.46-8.42-.17-2.61,.35-5.58,2.21-7.53,4.23-4.45,10.8-11.93,11.48-13.21,.68-1.28,1.96-6.04-3.4-6.04-2.75,0-5.53-.09-8.26,.32-1.73,.26-3.43,.7-4.97,1.57-1.68,.95-2.76,2.39-4.08,3.76-2.29,2.4-4.45,4.99-6.85,7.27-1.64,1.56-4.12,3.54-6.5,3.54-1.81-.15-4-.6-4.3-6.19-.3-5.59-.45-24.54-.38-26.35s-.08-7.63-9.44-7.63Z"/>
    <path class="cls-1" d="M497.03,13.39v.7c-1.97,1.22-4.93,3.06-8.88,5.5,.09,.19,1.69,1.32,4.79,3.38,1.97,1.22,2.96,2.68,2.96,4.37,0,.47-.14,1.08-.42,1.83-.28,.75-.42,1.32-.42,1.69-.38,.56-1.08,.85-2.11,.85-3.48,0-6.25-.94-8.32-2.82-.19,.28-.33,.66-.42,1.13,0,1.13,1.22,3.24,3.66,6.34v2.25c-2.73,1.32-4.28,1.97-4.65,1.97-1.5,0-3.2-1.5-5.08-4.51-1.32-2.16-2.68-4.28-4.09-6.34-1.69,1.5-3.43,3.05-5.22,4.65-2.35,2.07-4.37,3.1-6.06,3.1-1.03,0-2.44-.52-4.23-1.55v-2.68c0-.56,2.58-3.38,7.75-8.46-.75-1.13-2.77-1.88-6.06-2.25-3.29-.38-5.4-1.03-6.34-1.97,.94-3.48,2.73-5.64,5.36-6.49,1.22-.19,4.13-.28,8.74-.28,0-.19-.94-1.6-2.82-4.23-1.6-2.16-2.4-3.47-2.4-3.95,0-1.31,.73-2.58,2.19-3.81,1.46-1.22,2.7-1.83,3.74-1.83,1.69,0,3.48,2.12,5.36,6.34,1.41,2.82,2.77,5.69,4.09,8.6,2.54-1.78,5.08-3.57,7.61-5.36,4.23-2.91,6.63-4.37,7.19-4.37,1.32,0,2.33,.94,3.03,2.82,.7,1.88,1.06,3.67,1.06,5.36Z"/>
  </g>
</svg>