<?xml version="1.0" encoding="UTF-8"?>
<svg id="Layer_2" data-name="Layer 2" xmlns="http://www.w3.org/2000/svg" xmlns:xlink="http://www.w3.org/1999/xlink" viewBox="0 0 517.65 461.89">
  <defs>
    <style>
      .cls-1 {
        fill: url(#linear-gradient);
      }
    </style>
    <linearGradient id="linear-gradient" x1="0" y1="230.95" x2="517.65" y2="230.95" gradientUnits="userSpaceOnUse">
      <stop offset="0" stop-color="#fff"/>
      <stop offset="0" stop-color="#426f35"/>
      <stop offset=".1" stop-color="#4e7842"/>
      <stop offset=".3" stop-color="#6f9066"/>
      <stop offset=".56" stop-color="#a4b89f"/>
      <stop offset=".88" stop-color="#edefee"/>
      <stop offset=".89" stop-color="#f1f2f2"/>
    </linearGradient>
  </defs>
  <g id="VAR_2" data-name="VAR 2">
    <path class="cls-1" d="m512.42,152.38l-2.12,8.01c-26.13,13.9-65.34,34.76-117.6,62.54.48,2.15,15.27,14.98,44.33,38.5,18.77,13.9,25.61,30.47,20.51,49.72-1.42,5.35-4.85,12.29-10.33,20.84-5.47,8.57-8.78,14.98-9.91,19.25-5.98,6.4-14.85,9.63-26.6,9.63-39.57,0-68.29-10.68-86.13-32.08-3.01,3.2-5.74,7.48-8.21,12.83-3.4,12.83,4.11,36.89,22.58,72.17l-6.79,25.65c-34.99,15-54.61,22.45-58.86,22.45-17.11,0-31.84-17.08-44.16-51.31-8.47-24.6-17.59-48.64-27.39-72.17-23.78,17.1-48.25,34.74-73.36,52.92-32.97,23.53-59.06,35.28-78.31,35.28-11.77,0-26.26-5.86-43.45-17.64l8.07-30.47c1.7-6.42,39.6-38.5,113.7-96.23-5.18-12.83-25.89-21.38-62.18-25.65-36.28-4.28-58.36-11.75-66.22-22.45,21.17-39.55,48.01-64.16,80.48-73.78,14.44-2.13,47.88-3.2,100.28-3.2.57-2.15-5.89-18.18-19.33-48.13-11.68-24.58-16.8-39.53-15.37-44.9,3.96-14.95,16.05-29.39,36.32-43.29C202.63,6.96,218.63,0,230.41,0c19.24,0,33.17,24.06,41.83,72.17,7.54,32.08,14.38,64.72,20.59,97.85,34.24-20.3,68.5-40.63,102.75-60.95,56.89-33.13,88.55-49.72,94.96-49.72,14.96,0,23.63,10.7,25.99,32.08,2.35,21.4.98,41.7-4.12,60.95Z"/>
  </g>
</svg>